<svg xmlns="http://www.w3.org/2000/svg" xmlns:xlink="http://www.w3.org/1999/xlink" width="600" height="400" viewBox="0 0 2400 1600">
<defs>
  <clipPath id="clip310">
    <rect x="0" y="0" width="2400" height="1600"></rect>
  </clipPath>
</defs>
<path clip-path="url(#clip310)" d="M0 1600 L2400 1600 L2400 0 L0 0  Z" fill="#ffffff" fill-rule="evenodd" fill-opacity="1"></path>
<defs>
  <clipPath id="clip311">
    <rect x="480" y="0" width="1681" height="1600"></rect>
  </clipPath>
</defs>
<path clip-path="url(#clip310)" d="M292.713 1423.18 L2352.76 1423.18 L2352.76 47.2441 L292.713 47.2441  Z" fill="#ffffff" fill-rule="evenodd" fill-opacity="1"></path>
<defs>
  <clipPath id="clip312">
    <rect x="292" y="47" width="2061" height="1377"></rect>
  </clipPath>
</defs>
<polyline clip-path="url(#clip312)" style="stroke:#000000; stroke-linecap:round; stroke-linejoin:round; stroke-width:2; stroke-opacity:0.1; fill:none" points="330.559,1423.18 330.559,47.2441 "></polyline>
<polyline clip-path="url(#clip312)" style="stroke:#000000; stroke-linecap:round; stroke-linejoin:round; stroke-width:2; stroke-opacity:0.1; fill:none" points="739.704,1423.18 739.704,47.2441 "></polyline>
<polyline clip-path="url(#clip312)" style="stroke:#000000; stroke-linecap:round; stroke-linejoin:round; stroke-width:2; stroke-opacity:0.1; fill:none" points="1148.85,1423.18 1148.85,47.2441 "></polyline>
<polyline clip-path="url(#clip312)" style="stroke:#000000; stroke-linecap:round; stroke-linejoin:round; stroke-width:2; stroke-opacity:0.1; fill:none" points="1557.99,1423.18 1557.99,47.2441 "></polyline>
<polyline clip-path="url(#clip312)" style="stroke:#000000; stroke-linecap:round; stroke-linejoin:round; stroke-width:2; stroke-opacity:0.1; fill:none" points="1967.14,1423.18 1967.14,47.2441 "></polyline>
<polyline clip-path="url(#clip312)" style="stroke:#000000; stroke-linecap:round; stroke-linejoin:round; stroke-width:2; stroke-opacity:0.1; fill:none" points="292.713,1384.48 2352.76,1384.48 "></polyline>
<polyline clip-path="url(#clip312)" style="stroke:#000000; stroke-linecap:round; stroke-linejoin:round; stroke-width:2; stroke-opacity:0.1; fill:none" points="292.713,1089.24 2352.76,1089.24 "></polyline>
<polyline clip-path="url(#clip312)" style="stroke:#000000; stroke-linecap:round; stroke-linejoin:round; stroke-width:2; stroke-opacity:0.1; fill:none" points="292.713,794.008 2352.76,794.008 "></polyline>
<polyline clip-path="url(#clip312)" style="stroke:#000000; stroke-linecap:round; stroke-linejoin:round; stroke-width:2; stroke-opacity:0.1; fill:none" points="292.713,498.771 2352.76,498.771 "></polyline>
<polyline clip-path="url(#clip312)" style="stroke:#000000; stroke-linecap:round; stroke-linejoin:round; stroke-width:2; stroke-opacity:0.1; fill:none" points="292.713,203.534 2352.76,203.534 "></polyline>
<polyline clip-path="url(#clip310)" style="stroke:#000000; stroke-linecap:round; stroke-linejoin:round; stroke-width:4; stroke-opacity:1; fill:none" points="292.713,1423.18 2352.76,1423.18 "></polyline>
<polyline clip-path="url(#clip310)" style="stroke:#000000; stroke-linecap:round; stroke-linejoin:round; stroke-width:4; stroke-opacity:1; fill:none" points="330.559,1423.18 330.559,1404.28 "></polyline>
<polyline clip-path="url(#clip310)" style="stroke:#000000; stroke-linecap:round; stroke-linejoin:round; stroke-width:4; stroke-opacity:1; fill:none" points="739.704,1423.18 739.704,1404.28 "></polyline>
<polyline clip-path="url(#clip310)" style="stroke:#000000; stroke-linecap:round; stroke-linejoin:round; stroke-width:4; stroke-opacity:1; fill:none" points="1148.85,1423.18 1148.85,1404.28 "></polyline>
<polyline clip-path="url(#clip310)" style="stroke:#000000; stroke-linecap:round; stroke-linejoin:round; stroke-width:4; stroke-opacity:1; fill:none" points="1557.99,1423.18 1557.99,1404.28 "></polyline>
<polyline clip-path="url(#clip310)" style="stroke:#000000; stroke-linecap:round; stroke-linejoin:round; stroke-width:4; stroke-opacity:1; fill:none" points="1967.14,1423.18 1967.14,1404.28 "></polyline>
<path clip-path="url(#clip310)" d="M330.559 1454.1 Q326.948 1454.1 325.119 1457.66 Q323.314 1461.2 323.314 1468.33 Q323.314 1475.44 325.119 1479.01 Q326.948 1482.55 330.559 1482.55 Q334.193 1482.55 335.999 1479.01 Q337.827 1475.44 337.827 1468.33 Q337.827 1461.2 335.999 1457.66 Q334.193 1454.1 330.559 1454.1 M330.559 1450.39 Q336.369 1450.39 339.425 1455 Q342.503 1459.58 342.503 1468.33 Q342.503 1477.06 339.425 1481.67 Q336.369 1486.25 330.559 1486.25 Q324.749 1486.25 321.67 1481.67 Q318.615 1477.06 318.615 1468.33 Q318.615 1459.58 321.67 1455 Q324.749 1450.39 330.559 1450.39 Z" fill="#000000" fill-rule="nonzero" fill-opacity="1"></path><path clip-path="url(#clip310)" d="M718.477 1481.64 L734.796 1481.64 L734.796 1485.58 L712.852 1485.58 L712.852 1481.64 Q715.514 1478.89 720.097 1474.26 Q724.704 1469.61 725.884 1468.27 Q728.13 1465.74 729.009 1464.01 Q729.912 1462.25 729.912 1460.56 Q729.912 1457.8 727.967 1456.07 Q726.046 1454.33 722.944 1454.33 Q720.745 1454.33 718.292 1455.09 Q715.861 1455.86 713.083 1457.41 L713.083 1452.69 Q715.907 1451.55 718.361 1450.97 Q720.815 1450.39 722.852 1450.39 Q728.222 1450.39 731.417 1453.08 Q734.611 1455.77 734.611 1460.26 Q734.611 1462.39 733.801 1464.31 Q733.014 1466.2 730.907 1468.8 Q730.329 1469.47 727.227 1472.69 Q724.125 1475.88 718.477 1481.64 Z" fill="#000000" fill-rule="nonzero" fill-opacity="1"></path><path clip-path="url(#clip310)" d="M754.611 1454.1 Q751 1454.1 749.171 1457.66 Q747.366 1461.2 747.366 1468.33 Q747.366 1475.44 749.171 1479.01 Q751 1482.55 754.611 1482.55 Q758.245 1482.55 760.051 1479.01 Q761.879 1475.44 761.879 1468.33 Q761.879 1461.2 760.051 1457.66 Q758.245 1454.1 754.611 1454.1 M754.611 1450.39 Q760.421 1450.39 763.477 1455 Q766.555 1459.58 766.555 1468.33 Q766.555 1477.06 763.477 1481.67 Q760.421 1486.25 754.611 1486.25 Q748.801 1486.25 745.722 1481.67 Q742.666 1477.06 742.666 1468.33 Q742.666 1459.58 745.722 1455 Q748.801 1450.39 754.611 1450.39 Z" fill="#000000" fill-rule="nonzero" fill-opacity="1"></path><path clip-path="url(#clip310)" d="M1137.02 1455.09 L1125.21 1473.54 L1137.02 1473.54 L1137.02 1455.09 M1135.79 1451.02 L1141.67 1451.02 L1141.67 1473.54 L1146.6 1473.54 L1146.6 1477.43 L1141.67 1477.43 L1141.67 1485.58 L1137.02 1485.58 L1137.02 1477.43 L1121.42 1477.43 L1121.42 1472.92 L1135.79 1451.02 Z" fill="#000000" fill-rule="nonzero" fill-opacity="1"></path><path clip-path="url(#clip310)" d="M1164.33 1454.1 Q1160.72 1454.1 1158.89 1457.66 Q1157.09 1461.2 1157.09 1468.33 Q1157.09 1475.44 1158.89 1479.01 Q1160.72 1482.55 1164.33 1482.55 Q1167.97 1482.55 1169.77 1479.01 Q1171.6 1475.44 1171.6 1468.33 Q1171.6 1461.2 1169.77 1457.66 Q1167.97 1454.1 1164.33 1454.1 M1164.33 1450.39 Q1170.14 1450.39 1173.2 1455 Q1176.28 1459.58 1176.28 1468.33 Q1176.28 1477.06 1173.2 1481.67 Q1170.14 1486.25 1164.33 1486.25 Q1158.52 1486.25 1155.45 1481.67 Q1152.39 1477.06 1152.39 1468.33 Q1152.39 1459.58 1155.45 1455 Q1158.52 1450.39 1164.33 1450.39 Z" fill="#000000" fill-rule="nonzero" fill-opacity="1"></path><path clip-path="url(#clip310)" d="M1543.4 1466.44 Q1540.25 1466.44 1538.4 1468.59 Q1536.57 1470.74 1536.57 1474.49 Q1536.57 1478.22 1538.4 1480.39 Q1540.25 1482.55 1543.4 1482.55 Q1546.55 1482.55 1548.37 1480.39 Q1550.23 1478.22 1550.23 1474.49 Q1550.23 1470.74 1548.37 1468.59 Q1546.55 1466.44 1543.4 1466.44 M1552.68 1451.78 L1552.68 1456.04 Q1550.92 1455.21 1549.12 1454.77 Q1547.33 1454.33 1545.57 1454.33 Q1540.94 1454.33 1538.49 1457.45 Q1536.06 1460.58 1535.71 1466.9 Q1537.08 1464.89 1539.14 1463.82 Q1541.2 1462.73 1543.68 1462.73 Q1548.88 1462.73 1551.89 1465.9 Q1554.93 1469.05 1554.93 1474.49 Q1554.93 1479.82 1551.78 1483.03 Q1548.63 1486.25 1543.4 1486.25 Q1537.4 1486.25 1534.23 1481.67 Q1531.06 1477.06 1531.06 1468.33 Q1531.06 1460.14 1534.95 1455.28 Q1538.84 1450.39 1545.39 1450.39 Q1547.15 1450.39 1548.93 1450.74 Q1550.74 1451.09 1552.68 1451.78 Z" fill="#000000" fill-rule="nonzero" fill-opacity="1"></path><path clip-path="url(#clip310)" d="M1572.98 1454.1 Q1569.37 1454.1 1567.54 1457.66 Q1565.74 1461.2 1565.74 1468.33 Q1565.74 1475.44 1567.54 1479.01 Q1569.37 1482.55 1572.98 1482.55 Q1576.62 1482.55 1578.42 1479.01 Q1580.25 1475.44 1580.25 1468.33 Q1580.25 1461.2 1578.42 1457.66 Q1576.62 1454.1 1572.98 1454.1 M1572.98 1450.39 Q1578.79 1450.39 1581.85 1455 Q1584.93 1459.58 1584.93 1468.33 Q1584.93 1477.06 1581.85 1481.67 Q1578.79 1486.25 1572.98 1486.25 Q1567.17 1486.25 1564.09 1481.67 Q1561.04 1477.06 1561.04 1468.33 Q1561.04 1459.58 1564.09 1455 Q1567.17 1450.39 1572.98 1450.39 Z" fill="#000000" fill-rule="nonzero" fill-opacity="1"></path><path clip-path="url(#clip310)" d="M1952.01 1469.17 Q1948.68 1469.17 1946.76 1470.95 Q1944.86 1472.73 1944.86 1475.86 Q1944.86 1478.98 1946.76 1480.77 Q1948.68 1482.55 1952.01 1482.55 Q1955.34 1482.55 1957.26 1480.77 Q1959.19 1478.96 1959.19 1475.86 Q1959.19 1472.73 1957.26 1470.95 Q1955.37 1469.17 1952.01 1469.17 M1947.33 1467.18 Q1944.32 1466.44 1942.63 1464.38 Q1940.97 1462.32 1940.97 1459.35 Q1940.97 1455.21 1943.91 1452.8 Q1946.87 1450.39 1952.01 1450.39 Q1957.17 1450.39 1960.11 1452.8 Q1963.05 1455.21 1963.05 1459.35 Q1963.05 1462.32 1961.36 1464.38 Q1959.7 1466.44 1956.71 1467.18 Q1960.09 1467.96 1961.96 1470.26 Q1963.86 1472.55 1963.86 1475.86 Q1963.86 1480.88 1960.78 1483.57 Q1957.73 1486.25 1952.01 1486.25 Q1946.29 1486.25 1943.21 1483.57 Q1940.16 1480.88 1940.16 1475.86 Q1940.16 1472.55 1942.06 1470.26 Q1943.95 1467.96 1947.33 1467.18 M1945.62 1459.79 Q1945.62 1462.48 1947.29 1463.98 Q1948.98 1465.49 1952.01 1465.49 Q1955.02 1465.49 1956.71 1463.98 Q1958.42 1462.48 1958.42 1459.79 Q1958.42 1457.11 1956.71 1455.6 Q1955.02 1454.1 1952.01 1454.1 Q1948.98 1454.1 1947.29 1455.6 Q1945.62 1457.11 1945.62 1459.79 Z" fill="#000000" fill-rule="nonzero" fill-opacity="1"></path><path clip-path="url(#clip310)" d="M1982.17 1454.1 Q1978.56 1454.1 1976.73 1457.66 Q1974.93 1461.2 1974.93 1468.33 Q1974.93 1475.44 1976.73 1479.01 Q1978.56 1482.55 1982.17 1482.55 Q1985.81 1482.55 1987.61 1479.01 Q1989.44 1475.44 1989.44 1468.33 Q1989.44 1461.2 1987.61 1457.66 Q1985.81 1454.1 1982.17 1454.1 M1982.17 1450.39 Q1987.98 1450.39 1991.04 1455 Q1994.12 1459.58 1994.12 1468.33 Q1994.12 1477.06 1991.04 1481.67 Q1987.98 1486.25 1982.17 1486.25 Q1976.36 1486.25 1973.28 1481.67 Q1970.23 1477.06 1970.23 1468.33 Q1970.23 1459.58 1973.28 1455 Q1976.36 1450.39 1982.17 1450.39 Z" fill="#000000" fill-rule="nonzero" fill-opacity="1"></path><path clip-path="url(#clip310)" d="M1337.66 1546.53 L1337.66 1568.04 L1331.81 1568.04 L1331.81 1546.72 Q1331.81 1541.66 1329.83 1539.14 Q1327.86 1536.63 1323.91 1536.63 Q1319.17 1536.63 1316.43 1539.65 Q1313.7 1542.68 1313.7 1547.9 L1313.7 1568.04 L1307.81 1568.04 L1307.81 1532.4 L1313.7 1532.4 L1313.7 1537.93 Q1315.8 1534.72 1318.63 1533.13 Q1321.49 1531.54 1325.22 1531.54 Q1331.36 1531.54 1334.51 1535.36 Q1337.66 1539.14 1337.66 1546.53 Z" fill="#000000" fill-rule="nonzero" fill-opacity="1"></path><polyline clip-path="url(#clip310)" style="stroke:#000000; stroke-linecap:round; stroke-linejoin:round; stroke-width:4; stroke-opacity:1; fill:none" points="292.713,1423.18 292.713,47.2441 "></polyline>
<polyline clip-path="url(#clip310)" style="stroke:#000000; stroke-linecap:round; stroke-linejoin:round; stroke-width:4; stroke-opacity:1; fill:none" points="292.713,1384.48 311.611,1384.48 "></polyline>
<polyline clip-path="url(#clip310)" style="stroke:#000000; stroke-linecap:round; stroke-linejoin:round; stroke-width:4; stroke-opacity:1; fill:none" points="292.713,1089.24 311.611,1089.24 "></polyline>
<polyline clip-path="url(#clip310)" style="stroke:#000000; stroke-linecap:round; stroke-linejoin:round; stroke-width:4; stroke-opacity:1; fill:none" points="292.713,794.008 311.611,794.008 "></polyline>
<polyline clip-path="url(#clip310)" style="stroke:#000000; stroke-linecap:round; stroke-linejoin:round; stroke-width:4; stroke-opacity:1; fill:none" points="292.713,498.771 311.611,498.771 "></polyline>
<polyline clip-path="url(#clip310)" style="stroke:#000000; stroke-linecap:round; stroke-linejoin:round; stroke-width:4; stroke-opacity:1; fill:none" points="292.713,203.534 311.611,203.534 "></polyline>
<path clip-path="url(#clip310)" d="M244.769 1370.28 Q241.158 1370.28 239.329 1373.84 Q237.523 1377.39 237.523 1384.52 Q237.523 1391.62 239.329 1395.19 Q241.158 1398.73 244.769 1398.73 Q248.403 1398.73 250.209 1395.19 Q252.037 1391.62 252.037 1384.52 Q252.037 1377.39 250.209 1373.84 Q248.403 1370.28 244.769 1370.28 M244.769 1366.58 Q250.579 1366.58 253.634 1371.18 Q256.713 1375.77 256.713 1384.52 Q256.713 1393.24 253.634 1397.85 Q250.579 1402.43 244.769 1402.43 Q238.959 1402.43 235.88 1397.85 Q232.824 1393.24 232.824 1384.52 Q232.824 1375.77 235.88 1371.18 Q238.959 1366.58 244.769 1366.58 Z" fill="#000000" fill-rule="nonzero" fill-opacity="1"></path><path clip-path="url(#clip310)" d="M148.311 1102.59 L164.63 1102.59 L164.63 1106.52 L142.686 1106.52 L142.686 1102.59 Q145.348 1099.83 149.931 1095.21 Q154.538 1090.55 155.718 1089.21 Q157.964 1086.69 158.843 1084.95 Q159.746 1083.19 159.746 1081.5 Q159.746 1078.75 157.802 1077.01 Q155.88 1075.27 152.778 1075.27 Q150.579 1075.27 148.126 1076.04 Q145.695 1076.8 142.917 1078.35 L142.917 1073.63 Q145.741 1072.5 148.195 1071.92 Q150.649 1071.34 152.686 1071.34 Q158.056 1071.34 161.251 1074.02 Q164.445 1076.71 164.445 1081.2 Q164.445 1083.33 163.635 1085.25 Q162.848 1087.15 160.741 1089.74 Q160.163 1090.41 157.061 1093.63 Q153.959 1096.83 148.311 1102.59 Z" fill="#000000" fill-rule="nonzero" fill-opacity="1"></path><path clip-path="url(#clip310)" d="M174.491 1071.96 L192.848 1071.96 L192.848 1075.9 L178.774 1075.9 L178.774 1084.37 Q179.792 1084.02 180.811 1083.86 Q181.829 1083.68 182.848 1083.68 Q188.635 1083.68 192.014 1086.85 Q195.394 1090.02 195.394 1095.44 Q195.394 1101.02 191.922 1104.12 Q188.45 1107.2 182.13 1107.2 Q179.954 1107.2 177.686 1106.83 Q175.44 1106.46 173.033 1105.71 L173.033 1101.02 Q175.116 1102.15 177.339 1102.71 Q179.561 1103.26 182.038 1103.26 Q186.042 1103.26 188.38 1101.15 Q190.718 1099.05 190.718 1095.44 Q190.718 1091.83 188.38 1089.72 Q186.042 1087.61 182.038 1087.61 Q180.163 1087.61 178.288 1088.03 Q176.436 1088.45 174.491 1089.33 L174.491 1071.96 Z" fill="#000000" fill-rule="nonzero" fill-opacity="1"></path><path clip-path="url(#clip310)" d="M214.607 1075.04 Q210.996 1075.04 209.167 1078.61 Q207.362 1082.15 207.362 1089.28 Q207.362 1096.39 209.167 1099.95 Q210.996 1103.49 214.607 1103.49 Q218.241 1103.49 220.047 1099.95 Q221.875 1096.39 221.875 1089.28 Q221.875 1082.15 220.047 1078.61 Q218.241 1075.04 214.607 1075.04 M214.607 1071.34 Q220.417 1071.34 223.473 1075.95 Q226.551 1080.53 226.551 1089.28 Q226.551 1098.01 223.473 1102.61 Q220.417 1107.2 214.607 1107.2 Q208.797 1107.2 205.718 1102.61 Q202.662 1098.01 202.662 1089.28 Q202.662 1080.53 205.718 1075.95 Q208.797 1071.34 214.607 1071.34 Z" fill="#000000" fill-rule="nonzero" fill-opacity="1"></path><path clip-path="url(#clip310)" d="M244.769 1075.04 Q241.158 1075.04 239.329 1078.61 Q237.523 1082.15 237.523 1089.28 Q237.523 1096.39 239.329 1099.95 Q241.158 1103.49 244.769 1103.49 Q248.403 1103.49 250.209 1099.95 Q252.037 1096.39 252.037 1089.28 Q252.037 1082.15 250.209 1078.61 Q248.403 1075.04 244.769 1075.04 M244.769 1071.34 Q250.579 1071.34 253.634 1075.95 Q256.713 1080.53 256.713 1089.28 Q256.713 1098.01 253.634 1102.61 Q250.579 1107.2 244.769 1107.2 Q238.959 1107.2 235.88 1102.61 Q232.824 1098.01 232.824 1089.28 Q232.824 1080.53 235.88 1075.95 Q238.959 1071.34 244.769 1071.34 Z" fill="#000000" fill-rule="nonzero" fill-opacity="1"></path><path clip-path="url(#clip310)" d="M144.329 776.728 L162.686 776.728 L162.686 780.663 L148.612 780.663 L148.612 789.135 Q149.63 788.788 150.649 788.626 Q151.667 788.441 152.686 788.441 Q158.473 788.441 161.852 791.612 Q165.232 794.783 165.232 800.2 Q165.232 805.779 161.76 808.88 Q158.288 811.959 151.968 811.959 Q149.792 811.959 147.524 811.589 Q145.279 811.218 142.871 810.478 L142.871 805.779 Q144.954 806.913 147.177 807.468 Q149.399 808.024 151.876 808.024 Q155.88 808.024 158.218 805.917 Q160.556 803.811 160.556 800.2 Q160.556 796.589 158.218 794.482 Q155.88 792.376 151.876 792.376 Q150.001 792.376 148.126 792.792 Q146.274 793.209 144.329 794.089 L144.329 776.728 Z" fill="#000000" fill-rule="nonzero" fill-opacity="1"></path><path clip-path="url(#clip310)" d="M184.445 779.806 Q180.834 779.806 179.005 783.371 Q177.2 786.913 177.2 794.042 Q177.2 801.149 179.005 804.714 Q180.834 808.255 184.445 808.255 Q188.079 808.255 189.885 804.714 Q191.713 801.149 191.713 794.042 Q191.713 786.913 189.885 783.371 Q188.079 779.806 184.445 779.806 M184.445 776.103 Q190.255 776.103 193.311 780.709 Q196.389 785.293 196.389 794.042 Q196.389 802.769 193.311 807.376 Q190.255 811.959 184.445 811.959 Q178.635 811.959 175.556 807.376 Q172.501 802.769 172.501 794.042 Q172.501 785.293 175.556 780.709 Q178.635 776.103 184.445 776.103 Z" fill="#000000" fill-rule="nonzero" fill-opacity="1"></path><path clip-path="url(#clip310)" d="M214.607 779.806 Q210.996 779.806 209.167 783.371 Q207.362 786.913 207.362 794.042 Q207.362 801.149 209.167 804.714 Q210.996 808.255 214.607 808.255 Q218.241 808.255 220.047 804.714 Q221.875 801.149 221.875 794.042 Q221.875 786.913 220.047 783.371 Q218.241 779.806 214.607 779.806 M214.607 776.103 Q220.417 776.103 223.473 780.709 Q226.551 785.293 226.551 794.042 Q226.551 802.769 223.473 807.376 Q220.417 811.959 214.607 811.959 Q208.797 811.959 205.718 807.376 Q202.662 802.769 202.662 794.042 Q202.662 785.293 205.718 780.709 Q208.797 776.103 214.607 776.103 Z" fill="#000000" fill-rule="nonzero" fill-opacity="1"></path><path clip-path="url(#clip310)" d="M244.769 779.806 Q241.158 779.806 239.329 783.371 Q237.523 786.913 237.523 794.042 Q237.523 801.149 239.329 804.714 Q241.158 808.255 244.769 808.255 Q248.403 808.255 250.209 804.714 Q252.037 801.149 252.037 794.042 Q252.037 786.913 250.209 783.371 Q248.403 779.806 244.769 779.806 M244.769 776.103 Q250.579 776.103 253.634 780.709 Q256.713 785.293 256.713 794.042 Q256.713 802.769 253.634 807.376 Q250.579 811.959 244.769 811.959 Q238.959 811.959 235.88 807.376 Q232.824 802.769 232.824 794.042 Q232.824 785.293 235.88 780.709 Q238.959 776.103 244.769 776.103 Z" fill="#000000" fill-rule="nonzero" fill-opacity="1"></path><path clip-path="url(#clip310)" d="M143.103 481.491 L165.325 481.491 L165.325 483.482 L152.778 516.051 L147.894 516.051 L159.7 485.426 L143.103 485.426 L143.103 481.491 Z" fill="#000000" fill-rule="nonzero" fill-opacity="1"></path><path clip-path="url(#clip310)" d="M174.491 481.491 L192.848 481.491 L192.848 485.426 L178.774 485.426 L178.774 493.898 Q179.792 493.551 180.811 493.389 Q181.829 493.204 182.848 493.204 Q188.635 493.204 192.014 496.375 Q195.394 499.546 195.394 504.963 Q195.394 510.542 191.922 513.644 Q188.45 516.722 182.13 516.722 Q179.954 516.722 177.686 516.352 Q175.44 515.982 173.033 515.241 L173.033 510.542 Q175.116 511.676 177.339 512.232 Q179.561 512.787 182.038 512.787 Q186.042 512.787 188.38 510.681 Q190.718 508.574 190.718 504.963 Q190.718 501.352 188.38 499.246 Q186.042 497.139 182.038 497.139 Q180.163 497.139 178.288 497.556 Q176.436 497.972 174.491 498.852 L174.491 481.491 Z" fill="#000000" fill-rule="nonzero" fill-opacity="1"></path><path clip-path="url(#clip310)" d="M214.607 484.57 Q210.996 484.57 209.167 488.134 Q207.362 491.676 207.362 498.806 Q207.362 505.912 209.167 509.477 Q210.996 513.019 214.607 513.019 Q218.241 513.019 220.047 509.477 Q221.875 505.912 221.875 498.806 Q221.875 491.676 220.047 488.134 Q218.241 484.57 214.607 484.57 M214.607 480.866 Q220.417 480.866 223.473 485.472 Q226.551 490.056 226.551 498.806 Q226.551 507.533 223.473 512.139 Q220.417 516.722 214.607 516.722 Q208.797 516.722 205.718 512.139 Q202.662 507.533 202.662 498.806 Q202.662 490.056 205.718 485.472 Q208.797 480.866 214.607 480.866 Z" fill="#000000" fill-rule="nonzero" fill-opacity="1"></path><path clip-path="url(#clip310)" d="M244.769 484.57 Q241.158 484.57 239.329 488.134 Q237.523 491.676 237.523 498.806 Q237.523 505.912 239.329 509.477 Q241.158 513.019 244.769 513.019 Q248.403 513.019 250.209 509.477 Q252.037 505.912 252.037 498.806 Q252.037 491.676 250.209 488.134 Q248.403 484.57 244.769 484.57 M244.769 480.866 Q250.579 480.866 253.634 485.472 Q256.713 490.056 256.713 498.806 Q256.713 507.533 253.634 512.139 Q250.579 516.722 244.769 516.722 Q238.959 516.722 235.88 512.139 Q232.824 507.533 232.824 498.806 Q232.824 490.056 235.88 485.472 Q238.959 480.866 244.769 480.866 Z" fill="#000000" fill-rule="nonzero" fill-opacity="1"></path><path clip-path="url(#clip310)" d="M114.931 216.879 L122.57 216.879 L122.57 190.513 L114.26 192.18 L114.26 187.921 L122.524 186.254 L127.2 186.254 L127.2 216.879 L134.839 216.879 L134.839 220.814 L114.931 220.814 L114.931 216.879 Z" fill="#000000" fill-rule="nonzero" fill-opacity="1"></path><path clip-path="url(#clip310)" d="M154.283 189.333 Q150.672 189.333 148.843 192.898 Q147.038 196.439 147.038 203.569 Q147.038 210.675 148.843 214.24 Q150.672 217.782 154.283 217.782 Q157.917 217.782 159.723 214.24 Q161.552 210.675 161.552 203.569 Q161.552 196.439 159.723 192.898 Q157.917 189.333 154.283 189.333 M154.283 185.629 Q160.093 185.629 163.149 190.236 Q166.227 194.819 166.227 203.569 Q166.227 212.296 163.149 216.902 Q160.093 221.485 154.283 221.485 Q148.473 221.485 145.394 216.902 Q142.339 212.296 142.339 203.569 Q142.339 194.819 145.394 190.236 Q148.473 185.629 154.283 185.629 Z" fill="#000000" fill-rule="nonzero" fill-opacity="1"></path><path clip-path="url(#clip310)" d="M184.445 189.333 Q180.834 189.333 179.005 192.898 Q177.2 196.439 177.2 203.569 Q177.2 210.675 179.005 214.24 Q180.834 217.782 184.445 217.782 Q188.079 217.782 189.885 214.24 Q191.713 210.675 191.713 203.569 Q191.713 196.439 189.885 192.898 Q188.079 189.333 184.445 189.333 M184.445 185.629 Q190.255 185.629 193.311 190.236 Q196.389 194.819 196.389 203.569 Q196.389 212.296 193.311 216.902 Q190.255 221.485 184.445 221.485 Q178.635 221.485 175.556 216.902 Q172.501 212.296 172.501 203.569 Q172.501 194.819 175.556 190.236 Q178.635 185.629 184.445 185.629 Z" fill="#000000" fill-rule="nonzero" fill-opacity="1"></path><path clip-path="url(#clip310)" d="M214.607 189.333 Q210.996 189.333 209.167 192.898 Q207.362 196.439 207.362 203.569 Q207.362 210.675 209.167 214.24 Q210.996 217.782 214.607 217.782 Q218.241 217.782 220.047 214.24 Q221.875 210.675 221.875 203.569 Q221.875 196.439 220.047 192.898 Q218.241 189.333 214.607 189.333 M214.607 185.629 Q220.417 185.629 223.473 190.236 Q226.551 194.819 226.551 203.569 Q226.551 212.296 223.473 216.902 Q220.417 221.485 214.607 221.485 Q208.797 221.485 205.718 216.902 Q202.662 212.296 202.662 203.569 Q202.662 194.819 205.718 190.236 Q208.797 185.629 214.607 185.629 Z" fill="#000000" fill-rule="nonzero" fill-opacity="1"></path><path clip-path="url(#clip310)" d="M244.769 189.333 Q241.158 189.333 239.329 192.898 Q237.523 196.439 237.523 203.569 Q237.523 210.675 239.329 214.24 Q241.158 217.782 244.769 217.782 Q248.403 217.782 250.209 214.24 Q252.037 210.675 252.037 203.569 Q252.037 196.439 250.209 192.898 Q248.403 189.333 244.769 189.333 M244.769 185.629 Q250.579 185.629 253.634 190.236 Q256.713 194.819 256.713 203.569 Q256.713 212.296 253.634 216.902 Q250.579 221.485 244.769 221.485 Q238.959 221.485 235.88 216.902 Q232.824 212.296 232.824 203.569 Q232.824 194.819 235.88 190.236 Q238.959 185.629 244.769 185.629 Z" fill="#000000" fill-rule="nonzero" fill-opacity="1"></path><path clip-path="url(#clip310)" d="M18.2347 807.558 L28.3562 807.558 L28.3562 795.495 L32.9077 795.495 L32.9077 807.558 L52.2594 807.558 Q56.6199 807.558 57.8613 806.381 Q59.1026 805.171 59.1026 801.511 L59.1026 795.495 L64.0042 795.495 L64.0042 801.511 Q64.0042 808.29 61.4897 810.868 Q58.9434 813.447 52.2594 813.447 L32.9077 813.447 L32.9077 817.743 L28.3562 817.743 L28.3562 813.447 L18.2347 813.447 L18.2347 807.558 Z" fill="#000000" fill-rule="nonzero" fill-opacity="1"></path><path clip-path="url(#clip310)" d="M14.5426 753.004 Q21.8632 757.269 29.0246 759.338 Q36.186 761.407 43.5384 761.407 Q50.8908 761.407 58.1159 759.338 Q65.3091 757.237 72.5979 753.004 L72.5979 758.097 Q65.1182 762.871 57.8931 765.258 Q50.668 767.613 43.5384 767.613 Q36.4406 767.613 29.2474 765.258 Q22.0542 762.903 14.5426 758.097 L14.5426 753.004 Z" fill="#000000" fill-rule="nonzero" fill-opacity="1"></path><path clip-path="url(#clip310)" d="M42.4881 712.009 L64.0042 712.009 L64.0042 717.865 L42.679 717.865 Q37.6183 717.865 35.1038 719.839 Q32.5894 721.812 32.5894 725.759 Q32.5894 730.501 35.6131 733.239 Q38.6368 735.976 43.8567 735.976 L64.0042 735.976 L64.0042 741.864 L28.3562 741.864 L28.3562 735.976 L33.8944 735.976 Q30.6797 733.875 29.0883 731.042 Q27.4968 728.178 27.4968 724.454 Q27.4968 718.311 31.3163 715.16 Q35.1038 712.009 42.4881 712.009 Z" fill="#000000" fill-rule="nonzero" fill-opacity="1"></path><path clip-path="url(#clip310)" d="M29.4065 677.602 L34.9447 677.602 Q33.6716 680.085 33.035 682.759 Q32.3984 685.432 32.3984 688.297 Q32.3984 692.657 33.7352 694.853 Q35.072 697.018 37.7456 697.018 Q39.7826 697.018 40.9603 695.458 Q42.1061 693.899 43.1565 689.188 L43.6021 687.183 Q44.9389 680.944 47.3897 678.334 Q49.8086 675.693 54.1691 675.693 Q59.1344 675.693 62.0308 679.639 Q64.9272 683.554 64.9272 690.429 Q64.9272 693.294 64.3543 696.413 Q63.8132 699.5 62.6992 702.938 L56.6518 702.938 Q58.3387 699.691 59.198 696.54 Q60.0256 693.389 60.0256 690.302 Q60.0256 686.164 58.6251 683.936 Q57.1929 681.708 54.6147 681.708 Q52.2276 681.708 50.9545 683.331 Q49.6813 684.923 48.5037 690.366 L48.0262 692.403 Q46.8804 697.845 44.5251 700.264 Q42.138 702.683 38.0002 702.683 Q32.9713 702.683 30.2341 699.118 Q27.4968 695.554 27.4968 688.997 Q27.4968 685.75 27.9743 682.886 Q28.4517 680.021 29.4065 677.602 Z" fill="#000000" fill-rule="nonzero" fill-opacity="1"></path><path clip-path="url(#clip310)" d="M14.5426 667.29 L14.5426 662.197 Q22.0542 657.423 29.2474 655.068 Q36.4406 652.681 43.5384 652.681 Q50.668 652.681 57.8931 655.068 Q65.1182 657.423 72.5979 662.197 L72.5979 667.29 Q65.3091 663.057 58.1159 660.988 Q50.8908 658.887 43.5384 658.887 Q36.186 658.887 29.0246 660.988 Q21.8632 663.057 14.5426 667.29 Z" fill="#000000" fill-rule="nonzero" fill-opacity="1"></path><polyline clip-path="url(#clip312)" style="stroke:#009af9; stroke-linecap:round; stroke-linejoin:round; stroke-width:4; stroke-opacity:1; fill:none" points="351.016,1384.23 391.931,1384.23 432.845,1383.26 473.76,1380.77 514.674,1374.33 555.588,1357.22 596.503,1312.27 637.417,1195.47 678.332,884.526 719.246,86.1857 "></polyline>
<polyline clip-path="url(#clip312)" style="stroke:#e26f46; stroke-linecap:round; stroke-linejoin:round; stroke-width:4; stroke-opacity:1; fill:none" points="351.016,1384.24 453.302,1384.13 555.588,1383.99 657.875,1383.88 760.161,1383.75 862.447,1383.63 964.733,1383.43 1067.02,1383.31 1169.31,1383.19 1271.59,1383.07 1373.88,1382.92 1476.16,1382.82 1578.45,1382.7 1680.74,1382.11 1783.02,1382.37 1885.31,1382.19 1987.59,1382.13 2089.88,1382.07 2192.17,1381.9 2294.45,1381.82 "></polyline>
<path clip-path="url(#clip310)" d="M1545.42 248.629 L2284.09 248.629 L2284.09 93.1086 L1545.42 93.1086  Z" fill="#ffffff" fill-rule="evenodd" fill-opacity="1"></path>
<polyline clip-path="url(#clip310)" style="stroke:#000000; stroke-linecap:round; stroke-linejoin:round; stroke-width:4; stroke-opacity:1; fill:none" points="1545.42,248.629 2284.09,248.629 2284.09,93.1086 1545.42,93.1086 1545.42,248.629 "></polyline>
<polyline clip-path="url(#clip310)" style="stroke:#009af9; stroke-linecap:round; stroke-linejoin:round; stroke-width:4; stroke-opacity:1; fill:none" points="1568.31,144.949 1705.65,144.949 "></polyline>
<path clip-path="url(#clip310)" d="M1750.25 146.581 L1750.25 162.229 L1745.99 162.229 L1745.99 146.719 Q1745.99 143.039 1744.56 141.21 Q1743.12 139.382 1740.25 139.382 Q1736.8 139.382 1734.81 141.581 Q1732.82 143.78 1732.82 147.576 L1732.82 162.229 L1728.54 162.229 L1728.54 136.303 L1732.82 136.303 L1732.82 140.331 Q1734.35 137.993 1736.41 136.835 Q1738.49 135.678 1741.2 135.678 Q1745.67 135.678 1747.96 138.456 Q1750.25 141.21 1750.25 146.581 Z" fill="#000000" fill-rule="nonzero" fill-opacity="1"></path><path clip-path="url(#clip310)" d="M1770.53 149.196 Q1765.37 149.196 1763.38 150.377 Q1761.39 151.557 1761.39 154.405 Q1761.39 156.673 1762.87 158.016 Q1764.37 159.335 1766.94 159.335 Q1770.48 159.335 1772.61 156.835 Q1774.77 154.312 1774.77 150.145 L1774.77 149.196 L1770.53 149.196 M1779.03 147.437 L1779.03 162.229 L1774.77 162.229 L1774.77 158.293 Q1773.31 160.655 1771.13 161.789 Q1768.96 162.9 1765.81 162.9 Q1761.83 162.9 1759.47 160.678 Q1757.13 158.432 1757.13 154.682 Q1757.13 150.307 1760.04 148.085 Q1762.98 145.863 1768.79 145.863 L1774.77 145.863 L1774.77 145.446 Q1774.77 142.507 1772.82 140.909 Q1770.9 139.289 1767.4 139.289 Q1765.18 139.289 1763.08 139.821 Q1760.97 140.354 1759.03 141.419 L1759.03 137.483 Q1761.36 136.581 1763.56 136.141 Q1765.76 135.678 1767.84 135.678 Q1773.47 135.678 1776.25 138.594 Q1779.03 141.511 1779.03 147.437 Z" fill="#000000" fill-rule="nonzero" fill-opacity="1"></path><path clip-path="url(#clip310)" d="M1787.8 136.303 L1792.06 136.303 L1792.06 162.229 L1787.8 162.229 L1787.8 136.303 M1787.8 126.21 L1792.06 126.21 L1792.06 131.604 L1787.8 131.604 L1787.8 126.21 Z" fill="#000000" fill-rule="nonzero" fill-opacity="1"></path><path clip-path="url(#clip310)" d="M1797.91 136.303 L1802.43 136.303 L1810.53 158.062 L1818.63 136.303 L1823.15 136.303 L1813.42 162.229 L1807.64 162.229 L1797.91 136.303 Z" fill="#000000" fill-rule="nonzero" fill-opacity="1"></path><path clip-path="url(#clip310)" d="M1851.2 148.201 L1851.2 150.284 L1831.62 150.284 Q1831.9 154.682 1834.26 156.997 Q1836.64 159.289 1840.88 159.289 Q1843.33 159.289 1845.62 158.687 Q1847.94 158.085 1850.21 156.881 L1850.21 160.909 Q1847.91 161.881 1845.51 162.391 Q1843.1 162.9 1840.62 162.9 Q1834.42 162.9 1830.78 159.289 Q1827.17 155.678 1827.17 149.52 Q1827.17 143.155 1830.6 139.428 Q1834.05 135.678 1839.88 135.678 Q1845.11 135.678 1848.15 139.057 Q1851.2 142.414 1851.2 148.201 M1846.94 146.951 Q1846.9 143.456 1844.97 141.372 Q1843.08 139.289 1839.93 139.289 Q1836.36 139.289 1834.21 141.303 Q1832.08 143.317 1831.76 146.974 L1846.94 146.951 Z" fill="#000000" fill-rule="nonzero" fill-opacity="1"></path><path clip-path="url(#clip310)" d="M1888.28 140.284 Q1887.57 139.868 1886.71 139.682 Q1885.88 139.474 1884.86 139.474 Q1881.25 139.474 1879.3 141.835 Q1877.38 144.173 1877.38 148.571 L1877.38 162.229 L1873.1 162.229 L1873.1 136.303 L1877.38 136.303 L1877.38 140.331 Q1878.72 137.969 1880.88 136.835 Q1883.03 135.678 1886.11 135.678 Q1886.55 135.678 1887.08 135.747 Q1887.61 135.794 1888.26 135.909 L1888.28 140.284 Z" fill="#000000" fill-rule="nonzero" fill-opacity="1"></path><path clip-path="url(#clip310)" d="M1913.89 148.201 L1913.89 150.284 L1894.3 150.284 Q1894.58 154.682 1896.94 156.997 Q1899.33 159.289 1903.56 159.289 Q1906.02 159.289 1908.31 158.687 Q1910.62 158.085 1912.89 156.881 L1912.89 160.909 Q1910.6 161.881 1908.19 162.391 Q1905.78 162.9 1903.31 162.9 Q1897.1 162.9 1893.47 159.289 Q1889.86 155.678 1889.86 149.52 Q1889.86 143.155 1893.28 139.428 Q1896.73 135.678 1902.57 135.678 Q1907.8 135.678 1910.83 139.057 Q1913.89 142.414 1913.89 148.201 M1909.63 146.951 Q1909.58 143.456 1907.66 141.372 Q1905.76 139.289 1902.61 139.289 Q1899.05 139.289 1896.89 141.303 Q1894.77 143.317 1894.44 146.974 L1909.63 146.951 Z" fill="#000000" fill-rule="nonzero" fill-opacity="1"></path><path clip-path="url(#clip310)" d="M1939.53 137.298 L1939.53 141.28 Q1937.73 140.284 1935.9 139.798 Q1934.09 139.289 1932.24 139.289 Q1928.1 139.289 1925.81 141.928 Q1923.52 144.544 1923.52 149.289 Q1923.52 154.034 1925.81 156.673 Q1928.1 159.289 1932.24 159.289 Q1934.09 159.289 1935.9 158.803 Q1937.73 158.293 1939.53 157.298 L1939.53 161.233 Q1937.75 162.067 1935.83 162.483 Q1933.93 162.9 1931.78 162.9 Q1925.92 162.9 1922.47 159.219 Q1919.02 155.539 1919.02 149.289 Q1919.02 142.946 1922.5 139.312 Q1925.99 135.678 1932.06 135.678 Q1934.02 135.678 1935.9 136.095 Q1937.77 136.488 1939.53 137.298 Z" fill="#000000" fill-rule="nonzero" fill-opacity="1"></path><path clip-path="url(#clip310)" d="M1946.5 151.997 L1946.5 136.303 L1950.76 136.303 L1950.76 151.835 Q1950.76 155.516 1952.2 157.368 Q1953.63 159.196 1956.5 159.196 Q1959.95 159.196 1961.94 156.997 Q1963.95 154.798 1963.95 151.002 L1963.95 136.303 L1968.21 136.303 L1968.21 162.229 L1963.95 162.229 L1963.95 158.247 Q1962.4 160.608 1960.34 161.766 Q1958.31 162.9 1955.6 162.9 Q1951.13 162.9 1948.82 160.122 Q1946.5 157.344 1946.5 151.997 M1957.22 135.678 L1957.22 135.678 Z" fill="#000000" fill-rule="nonzero" fill-opacity="1"></path><path clip-path="url(#clip310)" d="M1992.01 140.284 Q1991.29 139.868 1990.44 139.682 Q1989.6 139.474 1988.58 139.474 Q1984.97 139.474 1983.03 141.835 Q1981.11 144.173 1981.11 148.571 L1981.11 162.229 L1976.82 162.229 L1976.82 136.303 L1981.11 136.303 L1981.11 140.331 Q1982.45 137.969 1984.6 136.835 Q1986.76 135.678 1989.83 135.678 Q1990.27 135.678 1990.81 135.747 Q1991.34 135.794 1991.99 135.909 L1992.01 140.284 Z" fill="#000000" fill-rule="nonzero" fill-opacity="1"></path><path clip-path="url(#clip310)" d="M2013.01 137.067 L2013.01 141.094 Q2011.2 140.169 2009.26 139.706 Q2007.31 139.243 2005.23 139.243 Q2002.06 139.243 2000.46 140.215 Q1998.89 141.187 1998.89 143.131 Q1998.89 144.613 2000.02 145.469 Q2001.15 146.303 2004.58 147.067 L2006.04 147.391 Q2010.57 148.363 2012.47 150.145 Q2014.39 151.905 2014.39 155.076 Q2014.39 158.687 2011.52 160.793 Q2008.68 162.9 2003.68 162.9 Q2001.59 162.9 1999.32 162.483 Q1997.08 162.09 1994.58 161.28 L1994.58 156.881 Q1996.94 158.108 1999.23 158.733 Q2001.52 159.335 2003.77 159.335 Q2006.78 159.335 2008.4 158.317 Q2010.02 157.275 2010.02 155.4 Q2010.02 153.664 2008.84 152.738 Q2007.68 151.812 2003.72 150.956 L2002.24 150.608 Q1998.28 149.775 1996.52 148.062 Q1994.76 146.326 1994.76 143.317 Q1994.76 139.659 1997.36 137.669 Q1999.95 135.678 2004.72 135.678 Q2007.08 135.678 2009.16 136.025 Q2011.25 136.372 2013.01 137.067 Z" fill="#000000" fill-rule="nonzero" fill-opacity="1"></path><path clip-path="url(#clip310)" d="M2021.18 136.303 L2025.44 136.303 L2025.44 162.229 L2021.18 162.229 L2021.18 136.303 M2021.18 126.21 L2025.44 126.21 L2025.44 131.604 L2021.18 131.604 L2021.18 126.21 Z" fill="#000000" fill-rule="nonzero" fill-opacity="1"></path><path clip-path="url(#clip310)" d="M2031.29 136.303 L2035.81 136.303 L2043.91 158.062 L2052.01 136.303 L2056.52 136.303 L2046.8 162.229 L2041.01 162.229 L2031.29 136.303 Z" fill="#000000" fill-rule="nonzero" fill-opacity="1"></path><path clip-path="url(#clip310)" d="M2084.58 148.201 L2084.58 150.284 L2065 150.284 Q2065.27 154.682 2067.63 156.997 Q2070.02 159.289 2074.26 159.289 Q2076.71 159.289 2079 158.687 Q2081.32 158.085 2083.58 156.881 L2083.58 160.909 Q2081.29 161.881 2078.88 162.391 Q2076.48 162.9 2074 162.9 Q2067.8 162.9 2064.16 159.289 Q2060.55 155.678 2060.55 149.52 Q2060.55 143.155 2063.98 139.428 Q2067.43 135.678 2073.26 135.678 Q2078.49 135.678 2081.52 139.057 Q2084.58 142.414 2084.58 148.201 M2080.32 146.951 Q2080.27 143.456 2078.35 141.372 Q2076.45 139.289 2073.31 139.289 Q2069.74 139.289 2067.59 141.303 Q2065.46 143.317 2065.13 146.974 L2080.32 146.951 Z" fill="#000000" fill-rule="nonzero" fill-opacity="1"></path><polyline clip-path="url(#clip310)" style="stroke:#e26f46; stroke-linecap:round; stroke-linejoin:round; stroke-width:4; stroke-opacity:1; fill:none" points="1568.31,196.789 1705.65,196.789 "></polyline>
<path clip-path="url(#clip310)" d="M1747.45 192.078 L1747.45 178.05 L1751.71 178.05 L1751.71 214.069 L1747.45 214.069 L1747.45 210.18 Q1746.11 212.495 1744.05 213.629 Q1742.01 214.74 1739.14 214.74 Q1734.44 214.74 1731.48 210.99 Q1728.54 207.24 1728.54 201.129 Q1728.54 195.018 1731.48 191.268 Q1734.44 187.518 1739.14 187.518 Q1742.01 187.518 1744.05 188.652 Q1746.11 189.763 1747.45 192.078 M1732.94 201.129 Q1732.94 205.828 1734.86 208.513 Q1736.8 211.175 1740.18 211.175 Q1743.56 211.175 1745.51 208.513 Q1747.45 205.828 1747.45 201.129 Q1747.45 196.43 1745.51 193.768 Q1743.56 191.083 1740.18 191.083 Q1736.8 191.083 1734.86 193.768 Q1732.94 196.43 1732.94 201.129 Z" fill="#000000" fill-rule="nonzero" fill-opacity="1"></path><path clip-path="url(#clip310)" d="M1771.27 216.476 Q1769.46 221.106 1767.75 222.518 Q1766.04 223.93 1763.17 223.93 L1759.77 223.93 L1759.77 220.365 L1762.27 220.365 Q1764.03 220.365 1765 219.532 Q1765.97 218.698 1767.15 215.596 L1767.91 213.652 L1757.43 188.143 L1761.94 188.143 L1770.04 208.421 L1778.15 188.143 L1782.66 188.143 L1771.27 216.476 Z" fill="#000000" fill-rule="nonzero" fill-opacity="1"></path><path clip-path="url(#clip310)" d="M1810.09 198.421 L1810.09 214.069 L1805.83 214.069 L1805.83 198.559 Q1805.83 194.879 1804.4 193.05 Q1802.96 191.222 1800.09 191.222 Q1796.64 191.222 1794.65 193.421 Q1792.66 195.62 1792.66 199.416 L1792.66 214.069 L1788.38 214.069 L1788.38 188.143 L1792.66 188.143 L1792.66 192.171 Q1794.19 189.833 1796.25 188.675 Q1798.33 187.518 1801.04 187.518 Q1805.51 187.518 1807.8 190.296 Q1810.09 193.05 1810.09 198.421 Z" fill="#000000" fill-rule="nonzero" fill-opacity="1"></path><path clip-path="url(#clip310)" d="M1830.37 201.036 Q1825.21 201.036 1823.21 202.217 Q1821.22 203.397 1821.22 206.245 Q1821.22 208.513 1822.71 209.856 Q1824.21 211.175 1826.78 211.175 Q1830.32 211.175 1832.45 208.675 Q1834.6 206.152 1834.6 201.985 L1834.6 201.036 L1830.37 201.036 M1838.86 199.277 L1838.86 214.069 L1834.6 214.069 L1834.6 210.133 Q1833.15 212.495 1830.97 213.629 Q1828.79 214.74 1825.65 214.74 Q1821.66 214.74 1819.3 212.518 Q1816.96 210.272 1816.96 206.522 Q1816.96 202.147 1819.88 199.925 Q1822.82 197.703 1828.63 197.703 L1834.6 197.703 L1834.6 197.286 Q1834.6 194.347 1832.66 192.749 Q1830.74 191.129 1827.24 191.129 Q1825.02 191.129 1822.91 191.661 Q1820.81 192.194 1818.86 193.259 L1818.86 189.323 Q1821.2 188.421 1823.4 187.981 Q1825.6 187.518 1827.68 187.518 Q1833.31 187.518 1836.08 190.434 Q1838.86 193.351 1838.86 199.277 Z" fill="#000000" fill-rule="nonzero" fill-opacity="1"></path><path clip-path="url(#clip310)" d="M1867.82 193.12 Q1869.42 190.249 1871.64 188.884 Q1873.86 187.518 1876.87 187.518 Q1880.92 187.518 1883.12 190.365 Q1885.32 193.189 1885.32 198.421 L1885.32 214.069 L1881.04 214.069 L1881.04 198.559 Q1881.04 194.833 1879.72 193.027 Q1878.4 191.222 1875.69 191.222 Q1872.38 191.222 1870.46 193.421 Q1868.54 195.62 1868.54 199.416 L1868.54 214.069 L1864.26 214.069 L1864.26 198.559 Q1864.26 194.809 1862.94 193.027 Q1861.62 191.222 1858.86 191.222 Q1855.6 191.222 1853.68 193.444 Q1851.76 195.643 1851.76 199.416 L1851.76 214.069 L1847.47 214.069 L1847.47 188.143 L1851.76 188.143 L1851.76 192.171 Q1853.21 189.786 1855.25 188.652 Q1857.29 187.518 1860.09 187.518 Q1862.91 187.518 1864.88 188.953 Q1866.87 190.388 1867.82 193.12 Z" fill="#000000" fill-rule="nonzero" fill-opacity="1"></path><path clip-path="url(#clip310)" d="M1893.82 188.143 L1898.08 188.143 L1898.08 214.069 L1893.82 214.069 L1893.82 188.143 M1893.82 178.05 L1898.08 178.05 L1898.08 183.444 L1893.82 183.444 L1893.82 178.05 Z" fill="#000000" fill-rule="nonzero" fill-opacity="1"></path><path clip-path="url(#clip310)" d="M1925.64 189.138 L1925.64 193.12 Q1923.84 192.124 1922.01 191.638 Q1920.2 191.129 1918.35 191.129 Q1914.21 191.129 1911.92 193.768 Q1909.63 196.384 1909.63 201.129 Q1909.63 205.874 1911.92 208.513 Q1914.21 211.129 1918.35 211.129 Q1920.2 211.129 1922.01 210.643 Q1923.84 210.133 1925.64 209.138 L1925.64 213.073 Q1923.86 213.907 1921.94 214.323 Q1920.04 214.74 1917.89 214.74 Q1912.03 214.74 1908.58 211.059 Q1905.14 207.379 1905.14 201.129 Q1905.14 194.786 1908.61 191.152 Q1912.1 187.518 1918.17 187.518 Q1920.14 187.518 1922.01 187.935 Q1923.89 188.328 1925.64 189.138 Z" fill="#000000" fill-rule="nonzero" fill-opacity="1"></path><path clip-path="url(#clip310)" d="M1952.24 210.18 L1952.24 223.93 L1947.96 223.93 L1947.96 188.143 L1952.24 188.143 L1952.24 192.078 Q1953.58 189.763 1955.62 188.652 Q1957.68 187.518 1960.53 187.518 Q1965.25 187.518 1968.19 191.268 Q1971.15 195.018 1971.15 201.129 Q1971.15 207.24 1968.19 210.99 Q1965.25 214.74 1960.53 214.74 Q1957.68 214.74 1955.62 213.629 Q1953.58 212.495 1952.24 210.18 M1966.73 201.129 Q1966.73 196.43 1964.79 193.768 Q1962.87 191.083 1959.49 191.083 Q1956.11 191.083 1954.16 193.768 Q1952.24 196.43 1952.24 201.129 Q1952.24 205.828 1954.16 208.513 Q1956.11 211.175 1959.49 211.175 Q1962.87 211.175 1964.79 208.513 Q1966.73 205.828 1966.73 201.129 Z" fill="#000000" fill-rule="nonzero" fill-opacity="1"></path><path clip-path="url(#clip310)" d="M1993.24 192.124 Q1992.52 191.708 1991.66 191.522 Q1990.83 191.314 1989.81 191.314 Q1986.2 191.314 1984.26 193.675 Q1982.33 196.013 1982.33 200.411 L1982.33 214.069 L1978.05 214.069 L1978.05 188.143 L1982.33 188.143 L1982.33 192.171 Q1983.68 189.809 1985.83 188.675 Q1987.98 187.518 1991.06 187.518 Q1991.5 187.518 1992.03 187.587 Q1992.57 187.634 1993.21 187.749 L1993.24 192.124 Z" fill="#000000" fill-rule="nonzero" fill-opacity="1"></path><path clip-path="url(#clip310)" d="M2006.71 191.129 Q2003.28 191.129 2001.29 193.814 Q1999.3 196.476 1999.3 201.129 Q1999.3 205.782 2001.27 208.467 Q2003.26 211.129 2006.71 211.129 Q2010.11 211.129 2012.1 208.444 Q2014.09 205.758 2014.09 201.129 Q2014.09 196.522 2012.1 193.837 Q2010.11 191.129 2006.71 191.129 M2006.71 187.518 Q2012.26 187.518 2015.44 191.129 Q2018.61 194.74 2018.61 201.129 Q2018.61 207.495 2015.44 211.129 Q2012.26 214.74 2006.71 214.74 Q2001.13 214.74 1997.96 211.129 Q1994.81 207.495 1994.81 201.129 Q1994.81 194.74 1997.96 191.129 Q2001.13 187.518 2006.71 187.518 Z" fill="#000000" fill-rule="nonzero" fill-opacity="1"></path><path clip-path="url(#clip310)" d="M2042.73 200.805 Q2042.73 196.175 2040.81 193.629 Q2038.91 191.083 2035.46 191.083 Q2032.03 191.083 2030.11 193.629 Q2028.21 196.175 2028.21 200.805 Q2028.21 205.411 2030.11 207.958 Q2032.03 210.504 2035.46 210.504 Q2038.91 210.504 2040.81 207.958 Q2042.73 205.411 2042.73 200.805 M2046.99 210.851 Q2046.99 217.471 2044.05 220.689 Q2041.11 223.93 2035.04 223.93 Q2032.8 223.93 2030.81 223.582 Q2028.82 223.258 2026.94 222.564 L2026.94 218.42 Q2028.82 219.439 2030.64 219.925 Q2032.47 220.411 2034.37 220.411 Q2038.56 220.411 2040.64 218.212 Q2042.73 216.036 2042.73 211.615 L2042.73 209.508 Q2041.41 211.8 2039.35 212.934 Q2037.29 214.069 2034.42 214.069 Q2029.65 214.069 2026.73 210.434 Q2023.82 206.8 2023.82 200.805 Q2023.82 194.786 2026.73 191.152 Q2029.65 187.518 2034.42 187.518 Q2037.29 187.518 2039.35 188.652 Q2041.41 189.786 2042.73 192.078 L2042.73 188.143 L2046.99 188.143 L2046.99 210.851 Z" fill="#000000" fill-rule="nonzero" fill-opacity="1"></path><path clip-path="url(#clip310)" d="M2070.78 192.124 Q2070.07 191.708 2069.21 191.522 Q2068.38 191.314 2067.36 191.314 Q2063.75 191.314 2061.8 193.675 Q2059.88 196.013 2059.88 200.411 L2059.88 214.069 L2055.6 214.069 L2055.6 188.143 L2059.88 188.143 L2059.88 192.171 Q2061.22 189.809 2063.38 188.675 Q2065.53 187.518 2068.61 187.518 Q2069.05 187.518 2069.58 187.587 Q2070.11 187.634 2070.76 187.749 L2070.78 192.124 Z" fill="#000000" fill-rule="nonzero" fill-opacity="1"></path><path clip-path="url(#clip310)" d="M2087.03 201.036 Q2081.87 201.036 2079.88 202.217 Q2077.89 203.397 2077.89 206.245 Q2077.89 208.513 2079.37 209.856 Q2080.88 211.175 2083.44 211.175 Q2086.99 211.175 2089.12 208.675 Q2091.27 206.152 2091.27 201.985 L2091.27 201.036 L2087.03 201.036 M2095.53 199.277 L2095.53 214.069 L2091.27 214.069 L2091.27 210.133 Q2089.81 212.495 2087.63 213.629 Q2085.46 214.74 2082.31 214.74 Q2078.33 214.74 2075.97 212.518 Q2073.63 210.272 2073.63 206.522 Q2073.63 202.147 2076.55 199.925 Q2079.49 197.703 2085.3 197.703 L2091.27 197.703 L2091.27 197.286 Q2091.27 194.347 2089.32 192.749 Q2087.4 191.129 2083.91 191.129 Q2081.69 191.129 2079.58 191.661 Q2077.47 192.194 2075.53 193.259 L2075.53 189.323 Q2077.87 188.421 2080.07 187.981 Q2082.26 187.518 2084.35 187.518 Q2089.97 187.518 2092.75 190.434 Q2095.53 193.351 2095.53 199.277 Z" fill="#000000" fill-rule="nonzero" fill-opacity="1"></path><path clip-path="url(#clip310)" d="M2124.49 193.12 Q2126.08 190.249 2128.31 188.884 Q2130.53 187.518 2133.54 187.518 Q2137.59 187.518 2139.79 190.365 Q2141.99 193.189 2141.99 198.421 L2141.99 214.069 L2137.7 214.069 L2137.7 198.559 Q2137.7 194.833 2136.38 193.027 Q2135.06 191.222 2132.36 191.222 Q2129.05 191.222 2127.13 193.421 Q2125.2 195.62 2125.2 199.416 L2125.2 214.069 L2120.92 214.069 L2120.92 198.559 Q2120.92 194.809 2119.6 193.027 Q2118.28 191.222 2115.53 191.222 Q2112.26 191.222 2110.34 193.444 Q2108.42 195.643 2108.42 199.416 L2108.42 214.069 L2104.14 214.069 L2104.14 188.143 L2108.42 188.143 L2108.42 192.171 Q2109.88 189.786 2111.92 188.652 Q2113.95 187.518 2116.75 187.518 Q2119.58 187.518 2121.55 188.953 Q2123.54 190.388 2124.49 193.12 Z" fill="#000000" fill-rule="nonzero" fill-opacity="1"></path><path clip-path="url(#clip310)" d="M2170.67 193.12 Q2172.26 190.249 2174.49 188.884 Q2176.71 187.518 2179.72 187.518 Q2183.77 187.518 2185.97 190.365 Q2188.17 193.189 2188.17 198.421 L2188.17 214.069 L2183.88 214.069 L2183.88 198.559 Q2183.88 194.833 2182.56 193.027 Q2181.25 191.222 2178.54 191.222 Q2175.23 191.222 2173.31 193.421 Q2171.38 195.62 2171.38 199.416 L2171.38 214.069 L2167.1 214.069 L2167.1 198.559 Q2167.1 194.809 2165.78 193.027 Q2164.46 191.222 2161.71 191.222 Q2158.44 191.222 2156.52 193.444 Q2154.6 195.643 2154.6 199.416 L2154.6 214.069 L2150.32 214.069 L2150.32 188.143 L2154.6 188.143 L2154.6 192.171 Q2156.06 189.786 2158.1 188.652 Q2160.13 187.518 2162.94 187.518 Q2165.76 187.518 2167.73 188.953 Q2169.72 190.388 2170.67 193.12 Z" fill="#000000" fill-rule="nonzero" fill-opacity="1"></path><path clip-path="url(#clip310)" d="M2196.66 188.143 L2200.92 188.143 L2200.92 214.069 L2196.66 214.069 L2196.66 188.143 M2196.66 178.05 L2200.92 178.05 L2200.92 183.444 L2196.66 183.444 L2196.66 178.05 Z" fill="#000000" fill-rule="nonzero" fill-opacity="1"></path><path clip-path="url(#clip310)" d="M2231.38 198.421 L2231.38 214.069 L2227.12 214.069 L2227.12 198.559 Q2227.12 194.879 2225.69 193.05 Q2224.25 191.222 2221.38 191.222 Q2217.93 191.222 2215.94 193.421 Q2213.95 195.62 2213.95 199.416 L2213.95 214.069 L2209.67 214.069 L2209.67 188.143 L2213.95 188.143 L2213.95 192.171 Q2215.48 189.833 2217.54 188.675 Q2219.62 187.518 2222.33 187.518 Q2226.8 187.518 2229.09 190.296 Q2231.38 193.05 2231.38 198.421 Z" fill="#000000" fill-rule="nonzero" fill-opacity="1"></path><path clip-path="url(#clip310)" d="M2256.94 200.805 Q2256.94 196.175 2255.02 193.629 Q2253.12 191.083 2249.67 191.083 Q2246.24 191.083 2244.32 193.629 Q2242.43 196.175 2242.43 200.805 Q2242.43 205.411 2244.32 207.958 Q2246.24 210.504 2249.67 210.504 Q2253.12 210.504 2255.02 207.958 Q2256.94 205.411 2256.94 200.805 M2261.2 210.851 Q2261.2 217.471 2258.26 220.689 Q2255.32 223.93 2249.25 223.93 Q2247.01 223.93 2245.02 223.582 Q2243.03 223.258 2241.15 222.564 L2241.15 218.42 Q2243.03 219.439 2244.86 219.925 Q2246.68 220.411 2248.58 220.411 Q2252.77 220.411 2254.86 218.212 Q2256.94 216.036 2256.94 211.615 L2256.94 209.508 Q2255.62 211.8 2253.56 212.934 Q2251.5 214.069 2248.63 214.069 Q2243.86 214.069 2240.94 210.434 Q2238.03 206.8 2238.03 200.805 Q2238.03 194.786 2240.94 191.152 Q2243.86 187.518 2248.63 187.518 Q2251.5 187.518 2253.56 188.652 Q2255.62 189.786 2256.94 192.078 L2256.94 188.143 L2261.2 188.143 L2261.2 210.851 Z" fill="#000000" fill-rule="nonzero" fill-opacity="1"></path></svg>